<svg xmlns="http://www.w3.org/2000/svg" xmlns:xlink="http://www.w3.org/1999/xlink" version="1.1" width="256" height="256" viewBox="0 0 256 256" xml:space="preserve">

<defs>
</defs>
<g style="stroke: none; stroke-width: 0; stroke-dasharray: none; stroke-linecap: butt; stroke-linejoin: miter; stroke-miterlimit: 10; fill: none; fill-rule: nonzero; opacity: 1;" transform="translate(1.4065934065934016 1.4065934065934016) scale(2.81 2.81)" >
	<circle cx="45" cy="45" r="44" style="stroke: none; stroke-width: 1; stroke-dasharray: none; stroke-linecap: butt; stroke-linejoin: miter; stroke-miterlimit: 10; fill: rgb(20,94,201); fill-rule: nonzero; opacity: 1;" transform="  matrix(1 0 0 1 0 0) "/>
	<path d="M 76.075 57.124 H 13.925 c -2.521 0 -4.564 -2.044 -4.564 -4.564 V 37.441 c 0 -2.521 2.044 -4.564 4.564 -4.564 h 62.149 c 2.521 0 4.564 2.044 4.564 4.564 v 15.119 C 80.639 55.08 78.595 57.124 76.075 57.124 z" style="stroke: none; stroke-width: 1; stroke-dasharray: none; stroke-linecap: butt; stroke-linejoin: miter; stroke-miterlimit: 10; fill: rgb(240,240,240); fill-rule: nonzero; opacity: 1;" transform=" matrix(1 0 0 1 0 0) " stroke-linecap="round" />
	<path d="M 45 90 C 20.187 90 0 69.813 0 45 C 0 20.187 20.187 0 45 0 c 24.813 0 45 20.187 45 45 C 90 69.813 69.813 90 45 90 z M 45 2 C 21.29 2 2 21.29 2 45 c 0 23.71 19.29 43 43 43 c 23.71 0 43 -19.29 43 -43 C 88 21.29 68.71 2 45 2 z" style="stroke: none; stroke-width: 1; stroke-dasharray: none; stroke-linecap: butt; stroke-linejoin: miter; stroke-miterlimit: 10; fill: rgb(0,0,0); fill-rule: nonzero; opacity: 1;" transform=" matrix(1 0 0 1 0 0) " stroke-linecap="round" />
	<rect x="44" y="57.12" rx="0" ry="0" width="2" height="31.88" style="stroke: none; stroke-width: 1; stroke-dasharray: none; stroke-linecap: butt; stroke-linejoin: miter; stroke-miterlimit: 10; fill: rgb(0,0,0); fill-rule: nonzero; opacity: 1;" transform=" matrix(1 0 0 1 0 0) "/>
	<rect x="44" y="1" rx="0" ry="0" width="2" height="31.88" style="stroke: none; stroke-width: 1; stroke-dasharray: none; stroke-linecap: butt; stroke-linejoin: miter; stroke-miterlimit: 10; fill: rgb(0,0,0); fill-rule: nonzero; opacity: 1;" transform=" matrix(1 0 0 1 0 0) "/>
	<path d="M 45 28.862 c -13.212 0 -25.701 -4.187 -34.266 -11.485 l 1.297 -1.522 C 20.24 22.85 32.256 26.862 45 26.862 c 12.743 0 24.76 -4.012 32.969 -11.007 l 1.297 1.522 C 70.701 24.676 58.212 28.862 45 28.862 z" style="stroke: none; stroke-width: 1; stroke-dasharray: none; stroke-linecap: butt; stroke-linejoin: miter; stroke-miterlimit: 10; fill: rgb(0,0,0); fill-rule: nonzero; opacity: 1;" transform=" matrix(1 0 0 1 0 0) " stroke-linecap="round" />
	<path d="M 12.032 74.145 l -1.297 -1.521 C 19.3 65.324 31.79 61.138 45 61.138 c 13.211 0 25.699 4.186 34.264 11.484 l -1.297 1.521 C 69.759 67.149 57.742 63.138 45 63.138 S 20.241 67.149 12.032 74.145 z" style="stroke: none; stroke-width: 1; stroke-dasharray: none; stroke-linecap: butt; stroke-linejoin: miter; stroke-miterlimit: 10; fill: rgb(0,0,0); fill-rule: nonzero; opacity: 1;" transform=" matrix(1 0 0 1 0 0) " stroke-linecap="round" />
	<path d="M 22.561 50.115 c -0.552 0 -1 -0.447 -1 -1 v -5.657 c 0 -0.703 -0.572 -1.275 -1.275 -1.275 h -1.292 v 6.932 c 0 0.553 -0.448 1 -1 1 s -1 -0.447 -1 -1 v -7.932 c 0 -0.552 0.448 -1 1 -1 h 2.292 c 1.806 0 3.275 1.469 3.275 3.275 v 5.657 C 23.561 49.668 23.113 50.115 22.561 50.115 z" style="stroke: none; stroke-width: 1; stroke-dasharray: none; stroke-linecap: butt; stroke-linejoin: miter; stroke-miterlimit: 10; fill: rgb(0,0,0); fill-rule: nonzero; opacity: 1;" transform=" matrix(1 0 0 1 0 0) " stroke-linecap="round" />
	<path d="M 17.994 42.183 c -0.552 0 -1 -0.448 -1 -1 v -4.539 c 0 -0.552 0.448 -1 1 -1 s 1 0.448 1 1 v 4.539 C 18.994 41.735 18.546 42.183 17.994 42.183 z" style="stroke: none; stroke-width: 1; stroke-dasharray: none; stroke-linecap: butt; stroke-linejoin: miter; stroke-miterlimit: 10; fill: rgb(0,0,0); fill-rule: nonzero; opacity: 1;" transform=" matrix(1 0 0 1 0 0) " stroke-linecap="round" />
	<path d="M 29.158 50.115 h -0.433 c -1.313 0 -2.382 -1.068 -2.382 -2.382 v -9.697 c 0 -0.552 0.448 -1 1 -1 s 1 0.448 1 1 v 9.697 c 0 0.211 0.171 0.382 0.382 0.382 h 0.433 c 0.552 0 1 0.447 1 1 S 29.711 50.115 29.158 50.115 z" style="stroke: none; stroke-width: 1; stroke-dasharray: none; stroke-linecap: butt; stroke-linejoin: miter; stroke-miterlimit: 10; fill: rgb(0,0,0); fill-rule: nonzero; opacity: 1;" transform=" matrix(1 0 0 1 0 0) " stroke-linecap="round" />
	<path d="M 29.158 41.175 h -2.746 c -0.552 0 -1 -0.448 -1 -1 s 0.448 -1 1 -1 h 2.746 c 0.552 0 1 0.448 1 1 S 29.711 41.175 29.158 41.175 z" style="stroke: none; stroke-width: 1; stroke-dasharray: none; stroke-linecap: butt; stroke-linejoin: miter; stroke-miterlimit: 10; fill: rgb(0,0,0); fill-rule: nonzero; opacity: 1;" transform=" matrix(1 0 0 1 0 0) " stroke-linecap="round" />
	<path d="M 36.066 50.115 h -0.433 c -1.313 0 -2.382 -1.068 -2.382 -2.382 v -9.697 c 0 -0.552 0.448 -1 1 -1 s 1 0.448 1 1 v 9.697 c 0 0.211 0.171 0.382 0.382 0.382 h 0.433 c 0.552 0 1 0.447 1 1 S 36.618 50.115 36.066 50.115 z" style="stroke: none; stroke-width: 1; stroke-dasharray: none; stroke-linecap: butt; stroke-linejoin: miter; stroke-miterlimit: 10; fill: rgb(0,0,0); fill-rule: nonzero; opacity: 1;" transform=" matrix(1 0 0 1 0 0) " stroke-linecap="round" />
	<path d="M 36.066 41.175 h -2.746 c -0.552 0 -1 -0.448 -1 -1 s 0.448 -1 1 -1 h 2.746 c 0.552 0 1 0.448 1 1 S 36.618 41.175 36.066 41.175 z" style="stroke: none; stroke-width: 1; stroke-dasharray: none; stroke-linecap: butt; stroke-linejoin: miter; stroke-miterlimit: 10; fill: rgb(0,0,0); fill-rule: nonzero; opacity: 1;" transform=" matrix(1 0 0 1 0 0) " stroke-linecap="round" />
	<path d="M 44.327 50.115 H 40.89 c -0.552 0 -1 -0.447 -1 -1 v -7.932 c 0 -0.552 0.448 -1 1 -1 h 3.437 c 1.174 0 2.13 0.956 2.13 2.13 v 5.671 C 46.457 49.159 45.501 50.115 44.327 50.115 z M 41.89 48.115 h 2.437 c 0.072 0 0.13 -0.059 0.13 -0.131 v -5.671 c 0 -0.072 -0.059 -0.13 -0.13 -0.13 H 41.89 V 48.115 z" style="stroke: none; stroke-width: 1; stroke-dasharray: none; stroke-linecap: butt; stroke-linejoin: miter; stroke-miterlimit: 10; fill: rgb(0,0,0); fill-rule: nonzero; opacity: 1;" transform=" matrix(1 0 0 1 0 0) " stroke-linecap="round" />
	<path d="M 40.89 54.355 c -0.552 0 -1 -0.447 -1 -1 v -4.24 c 0 -0.553 0.448 -1 1 -1 s 1 0.447 1 1 v 4.24 C 41.89 53.908 41.442 54.355 40.89 54.355 z" style="stroke: none; stroke-width: 1; stroke-dasharray: none; stroke-linecap: butt; stroke-linejoin: miter; stroke-miterlimit: 10; fill: rgb(0,0,0); fill-rule: nonzero; opacity: 1;" transform=" matrix(1 0 0 1 0 0) " stroke-linecap="round" />
	<path d="M 52.518 50.115 h -2.585 c -0.553 0 -1 -0.447 -1 -1 s 0.447 -1 1 -1 h 2.585 c 0.542 0 0.982 -0.441 0.982 -0.983 s -0.44 -0.982 -0.982 -0.982 h -1.032 c -0.553 0 -1 -0.448 -1 -1 s 0.447 -1 1 -1 h 1.032 c 1.645 0 2.982 1.338 2.982 2.983 C 55.5 48.777 54.162 50.115 52.518 50.115 z" style="stroke: none; stroke-width: 1; stroke-dasharray: none; stroke-linecap: butt; stroke-linejoin: miter; stroke-miterlimit: 10; fill: rgb(0,0,0); fill-rule: nonzero; opacity: 1;" transform=" matrix(1 0 0 1 0 0) " stroke-linecap="round" />
	<path d="M 52.638 46.148 h -0.722 c -1.646 0 -2.983 -1.337 -2.983 -2.982 s 1.338 -2.983 2.983 -2.983 h 1.343 c 0.553 0 1 0.448 1 1 s -0.447 1 -1 1 h -1.343 c -0.542 0 -0.983 0.441 -0.983 0.983 s 0.441 0.983 0.983 0.983 h 0.722 c 0.553 0 1 0.448 1 1 S 53.191 46.148 52.638 46.148 z" style="stroke: none; stroke-width: 1; stroke-dasharray: none; stroke-linecap: butt; stroke-linejoin: miter; stroke-miterlimit: 10; fill: rgb(0,0,0); fill-rule: nonzero; opacity: 1;" transform=" matrix(1 0 0 1 0 0) " stroke-linecap="round" />
	<path d="M 63.965 50.115 c -0.131 0 -0.263 -0.025 -0.39 -0.079 c -0.509 -0.216 -0.746 -0.803 -0.531 -1.311 l 3.294 -7.775 c 0.216 -0.51 0.806 -0.743 1.311 -0.531 c 0.509 0.216 0.746 0.803 0.531 1.311 l -3.294 7.774 C 64.724 49.887 64.354 50.115 63.965 50.115 z" style="stroke: none; stroke-width: 1; stroke-dasharray: none; stroke-linecap: butt; stroke-linejoin: miter; stroke-miterlimit: 10; fill: rgb(0,0,0); fill-rule: nonzero; opacity: 1;" transform=" matrix(1 0 0 1 0 0) " stroke-linecap="round" />
	<path d="M 68.713 50.115 c -0.131 0 -0.263 -0.025 -0.39 -0.079 c -0.509 -0.216 -0.746 -0.803 -0.531 -1.311 l 3.293 -7.775 c 0.216 -0.51 0.807 -0.743 1.311 -0.531 c 0.509 0.215 0.746 0.802 0.531 1.311 l -3.293 7.774 C 69.473 49.887 69.102 50.115 68.713 50.115 z" style="stroke: none; stroke-width: 1; stroke-dasharray: none; stroke-linecap: butt; stroke-linejoin: miter; stroke-miterlimit: 10; fill: rgb(0,0,0); fill-rule: nonzero; opacity: 1;" transform=" matrix(1 0 0 1 0 0) " stroke-linecap="round" />
	<circle cx="59.241" cy="44.480999999999995" r="0.861" style="stroke: none; stroke-width: 1; stroke-dasharray: none; stroke-linecap: butt; stroke-linejoin: miter; stroke-miterlimit: 10; fill: rgb(0,0,0); fill-rule: nonzero; opacity: 1;" transform="  matrix(1 0 0 1 0 0) "/>
	<path d="M 59.239 45.84 c -0.751 0 -1.361 -0.61 -1.361 -1.361 s 0.61 -1.361 1.361 -1.361 s 1.361 0.611 1.361 1.361 S 59.99 45.84 59.239 45.84 z M 59.239 44.118 c -0.199 0 -0.361 0.162 -0.361 0.361 c 0 0.199 0.162 0.361 0.361 0.361 s 0.361 -0.162 0.361 -0.361 C 59.601 44.28 59.439 44.118 59.239 44.118 z" style="stroke: none; stroke-width: 1; stroke-dasharray: none; stroke-linecap: butt; stroke-linejoin: miter; stroke-miterlimit: 10; fill: rgb(0,0,0); fill-rule: nonzero; opacity: 1;" transform=" matrix(1 0 0 1 0 0) " stroke-linecap="round" />
	<circle cx="59.241" cy="48.791" r="0.861" style="stroke: none; stroke-width: 1; stroke-dasharray: none; stroke-linecap: butt; stroke-linejoin: miter; stroke-miterlimit: 10; fill: rgb(0,0,0); fill-rule: nonzero; opacity: 1;" transform="  matrix(1 0 0 1 0 0) "/>
	<path d="M 59.239 50.147 c -0.751 0 -1.361 -0.611 -1.361 -1.362 s 0.61 -1.361 1.361 -1.361 s 1.361 0.61 1.361 1.361 S 59.99 50.147 59.239 50.147 z M 59.239 48.424 c -0.199 0 -0.361 0.162 -0.361 0.361 c 0 0.2 0.162 0.362 0.361 0.362 s 0.361 -0.162 0.361 -0.362 C 59.601 48.586 59.439 48.424 59.239 48.424 z" style="stroke: none; stroke-width: 1; stroke-dasharray: none; stroke-linecap: butt; stroke-linejoin: miter; stroke-miterlimit: 10; fill: rgb(0,0,0); fill-rule: nonzero; opacity: 1;" transform=" matrix(1 0 0 1 0 0) " stroke-linecap="round" />
	<path d="M 24.063 33.023 l -1.979 -0.294 C 24.988 13.153 34.197 0 45 0 s 20.013 13.153 22.916 32.729 l -1.979 0.293 C 63.229 14.757 54.618 2 45 2 S 26.772 14.757 24.063 33.023 z" style="stroke: none; stroke-width: 1; stroke-dasharray: none; stroke-linecap: butt; stroke-linejoin: miter; stroke-miterlimit: 10; fill: rgb(0,0,0); fill-rule: nonzero; opacity: 1;" transform=" matrix(1 0 0 1 0 0) " stroke-linecap="round" />
	<path d="M 45 90 c -10.802 0 -20.012 -13.153 -22.916 -32.729 l 1.979 -0.293 C 26.772 75.243 35.382 88 45 88 c 9.618 0 18.229 -12.757 20.938 -31.022 l 1.979 0.293 C 65.012 76.847 55.803 90 45 90 z" style="stroke: none; stroke-width: 1; stroke-dasharray: none; stroke-linecap: butt; stroke-linejoin: miter; stroke-miterlimit: 10; fill: rgb(0,0,0); fill-rule: nonzero; opacity: 1;" transform=" matrix(1 0 0 1 0 0) " stroke-linecap="round" />
	<path d="M 76.074 58.124 H 13.925 c -3.068 0 -5.564 -2.496 -5.564 -5.564 V 37.44 c 0 -3.068 2.496 -5.564 5.564 -5.564 h 62.149 c 3.068 0 5.564 2.496 5.564 5.564 V 52.56 C 81.639 55.628 79.143 58.124 76.074 58.124 z M 13.925 33.876 c -1.965 0 -3.564 1.599 -3.564 3.564 V 52.56 c 0 1.966 1.599 3.564 3.564 3.564 h 62.149 c 1.966 0 3.564 -1.599 3.564 -3.564 V 37.44 c 0 -1.965 -1.599 -3.564 -3.564 -3.564 H 13.925 z" style="stroke: none; stroke-width: 1; stroke-dasharray: none; stroke-linecap: butt; stroke-linejoin: miter; stroke-miterlimit: 10; fill: rgb(0,0,0); fill-rule: nonzero; opacity: 1;" transform=" matrix(1 0 0 1 0 0) " stroke-linecap="round" />
</g>
</svg>
